<?xml version="1.0" encoding="UTF-8" standalone="no"?>
<!-- Generator: Fusion 360, Shaper Origin Export Add-In, Version 1.6.10  -->

<svg
   xmlns:shaper="http://www.shapertools.com/namespaces/shaper"
   xmlns:dc="http://purl.org/dc/elements/1.1/"
   xmlns:cc="http://creativecommons.org/ns#"
   xmlns:rdf="http://www.w3.org/1999/02/22-rdf-syntax-ns#"
   xmlns:svg="http://www.w3.org/2000/svg"
   xmlns="http://www.w3.org/2000/svg"
   xmlns:sodipodi="http://sodipodi.sourceforge.net/DTD/sodipodi-0.dtd"
   xmlns:inkscape="http://www.inkscape.org/namespaces/inkscape"
   shaper:fusionaddin="version:1.6.10"
   width="8.5in"
   height="11in"
   version="1.1"
   x="0cm"
   y="0cm"
   viewBox="0 0 215.9 279.4"
   enable-background="new 0 0 11.0157951 19.0686905"
   xml:space="preserve"
   id="svg46"
   sodipodi:docname="face_plate.svg"
   inkscape:version="0.92.1 r15371"><metadata
     id="metadata52"><rdf:RDF><cc:Work
         rdf:about=""><dc:format>image/svg+xml</dc:format><dc:type
           rdf:resource="http://purl.org/dc/dcmitype/StillImage" /><dc:title /></cc:Work></rdf:RDF></metadata><defs
     id="defs50"><inkscape:path-effect
       effect="bend_path"
       id="path-effect4768"
       is_visible="true"
       bendpath="M 0.0312328,7.5129901 C 5.8697188,2.8426802 13.275531,0.05 21.33361,0.05"
       prop_scale="0.92"
       scale_y_rel="false"
       vertical="false" /></defs><sodipodi:namedview
     pagecolor="#ffffff"
     bordercolor="#666666"
     borderopacity="1"
     objecttolerance="10"
     gridtolerance="10"
     guidetolerance="10"
     inkscape:pageopacity="0"
     inkscape:pageshadow="2"
     inkscape:window-width="1920"
     inkscape:window-height="1147"
     id="namedview48"
     showgrid="false"
     units="in"
     inkscape:document-units="mm"
     inkscape:zoom="0.70710678"
     inkscape:cx="383.86431"
     inkscape:cy="523.02034"
     inkscape:window-x="-8"
     inkscape:window-y="-8"
     inkscape:window-maximized="1"
     inkscape:current-layer="svg46"
     inkscape:measure-start="-106.5,895.5"
     inkscape:measure-end="-102.25,895.5"
     inkscape:snap-intersection-paths="true"
     inkscape:snap-smooth-nodes="false"
     inkscape:object-nodes="true"
     inkscape:snap-global="true" /><circle
     r="2"
     cy="164.9019"
     cx="85.878242"
     id="circle4510"
     style="opacity:1;vector-effect:none;fill:none;fill-opacity:1;fill-rule:nonzero;stroke:#000000;stroke-width:0.1;stroke-linecap:butt;stroke-linejoin:round;stroke-miterlimit:4;stroke-dasharray:none;stroke-dashoffset:0;stroke-opacity:1;paint-order:normal" /><circle
     style="opacity:1;vector-effect:none;fill:none;fill-opacity:1;fill-rule:nonzero;stroke:#000000;stroke-width:0.1;stroke-linecap:butt;stroke-linejoin:round;stroke-miterlimit:4;stroke-dasharray:none;stroke-dashoffset:0;stroke-opacity:1;paint-order:normal"
     id="circle4512"
     cx="129.91324"
     cy="164.9019"
     r="2" /><circle
     r="2"
     cy="126.77908"
     cx="107.89574"
     id="circle4514"
     style="opacity:1;vector-effect:none;fill:none;fill-opacity:1;fill-rule:nonzero;stroke:#000000;stroke-width:0.1;stroke-linecap:butt;stroke-linejoin:round;stroke-miterlimit:4;stroke-dasharray:none;stroke-dashoffset:0;stroke-opacity:1;paint-order:normal" /><circle
     r="1.505"
     cy="54.984043"
     cx="59.912128"
     id="circle4516"
     style="opacity:1;vector-effect:none;fill:none;fill-opacity:1;fill-rule:nonzero;stroke:#000000;stroke-width:0.1;stroke-linecap:butt;stroke-linejoin:round;stroke-miterlimit:4;stroke-dasharray:none;stroke-dashoffset:0;stroke-opacity:1;paint-order:normal" /><circle
     style="opacity:1;vector-effect:none;fill:none;fill-opacity:1;fill-rule:nonzero;stroke:#000000;stroke-width:0.1;stroke-linecap:butt;stroke-linejoin:round;stroke-miterlimit:4;stroke-dasharray:none;stroke-dashoffset:0;stroke-opacity:1;paint-order:normal"
     id="circle4518"
     cx="155.98848"
     cy="54.984043"
     r="1.505" /><circle
     r="1.505"
     cy="225.93024"
     cx="82.875854"
     id="circle4520"
     style="opacity:1;vector-effect:none;fill:none;fill-opacity:1;fill-rule:nonzero;stroke:#000000;stroke-width:0.1;stroke-linecap:butt;stroke-linejoin:round;stroke-miterlimit:4;stroke-dasharray:none;stroke-dashoffset:0;stroke-opacity:1;paint-order:normal" /><circle
     style="opacity:1;vector-effect:none;fill:none;fill-opacity:1;fill-rule:nonzero;stroke:#000000;stroke-width:0.1;stroke-linecap:butt;stroke-linejoin:round;stroke-miterlimit:4;stroke-dasharray:none;stroke-dashoffset:0;stroke-opacity:1;paint-order:normal"
     id="circle4522"
     cx="140.92198"
     cy="130.78093"
     r="1.505" /><circle
     r="1.505"
     cy="225.93024"
     cx="132.91562"
     id="circle4524"
     style="opacity:1;vector-effect:none;fill:none;fill-opacity:1;fill-rule:nonzero;stroke:#000000;stroke-width:0.1;stroke-linecap:butt;stroke-linejoin:round;stroke-miterlimit:4;stroke-dasharray:none;stroke-dashoffset:0;stroke-opacity:1;paint-order:normal" /><circle
     style="opacity:1;vector-effect:none;fill:none;fill-opacity:1;fill-rule:nonzero;stroke:#000000;stroke-width:0.1;stroke-linecap:butt;stroke-linejoin:round;stroke-miterlimit:4;stroke-dasharray:none;stroke-dashoffset:0;stroke-opacity:1;paint-order:normal"
     id="circle4526"
     cx="74.869492"
     cy="130.78093"
     r="1.505" /><circle
     r="7.9499998"
     cy="57.985432"
     cx="107.9503"
     id="circle4528"
     style="opacity:1;vector-effect:none;fill:none;fill-opacity:1;fill-rule:nonzero;stroke:#000000;stroke-width:0.1;stroke-linecap:butt;stroke-linejoin:round;stroke-miterlimit:4;stroke-dasharray:none;stroke-dashoffset:0;stroke-opacity:1;paint-order:normal" /><circle
     r="4.0500002"
     cy="112.42753"
     cx="149.92915"
     id="circle4530"
     style="opacity:1;vector-effect:none;fill:#ffffff;fill-opacity:1;fill-rule:nonzero;stroke:#000000;stroke-width:0.1;stroke-linecap:butt;stroke-linejoin:round;stroke-miterlimit:4;stroke-dasharray:none;stroke-dashoffset:0;stroke-opacity:1;paint-order:normal" /><circle
     style="opacity:1;vector-effect:none;fill:#ffffff;fill-opacity:1;fill-rule:nonzero;stroke:#000000;stroke-width:0.1;stroke-linecap:butt;stroke-linejoin:round;stroke-miterlimit:4;stroke-dasharray:none;stroke-dashoffset:0;stroke-opacity:1;paint-order:normal"
     id="circle4532"
     cx="149.92915"
     cy="99.921722"
     r="4.0500002" /><circle
     r="4.0500002"
     cy="87.415909"
     cx="149.92915"
     id="circle4534"
     style="opacity:1;vector-effect:none;fill:#ffffff;fill-opacity:1;fill-rule:nonzero;stroke:#000000;stroke-width:0.1;stroke-linecap:butt;stroke-linejoin:round;stroke-miterlimit:4;stroke-dasharray:none;stroke-dashoffset:0;stroke-opacity:1;paint-order:normal" /><circle
     style="opacity:1;vector-effect:none;fill:#ffffff;fill-opacity:1;fill-rule:nonzero;stroke:#000000;stroke-width:0.1;stroke-linecap:butt;stroke-linejoin:round;stroke-miterlimit:4;stroke-dasharray:none;stroke-dashoffset:0;stroke-opacity:1;paint-order:normal"
     id="circle4536"
     cx="149.92915"
     cy="74.910103"
     r="4.0500002" /><circle
     style="opacity:1;vector-effect:none;fill:#ffffff;fill-opacity:1;fill-rule:nonzero;stroke:#000000;stroke-width:0.1;stroke-linecap:butt;stroke-linejoin:round;stroke-miterlimit:4;stroke-dasharray:none;stroke-dashoffset:0;stroke-opacity:1;paint-order:normal"
     id="circle4538"
     cx="65.862335"
     cy="112.42753"
     r="4.0500002" /><circle
     r="4.0500002"
     cy="99.921722"
     cx="65.862335"
     id="circle4540"
     style="opacity:1;vector-effect:none;fill:#ffffff;fill-opacity:1;fill-rule:nonzero;stroke:#000000;stroke-width:0.1;stroke-linecap:butt;stroke-linejoin:round;stroke-miterlimit:4;stroke-dasharray:none;stroke-dashoffset:0;stroke-opacity:1;paint-order:normal" /><circle
     style="opacity:1;vector-effect:none;fill:#ffffff;fill-opacity:1;fill-rule:nonzero;stroke:#000000;stroke-width:0.1;stroke-linecap:butt;stroke-linejoin:round;stroke-miterlimit:4;stroke-dasharray:none;stroke-dashoffset:0;stroke-opacity:1;paint-order:normal"
     id="circle4542"
     cx="65.862335"
     cy="87.415909"
     r="4.0500002" /><circle
     r="4.0500002"
     cy="74.910103"
     cx="65.862335"
     id="circle4544"
     style="opacity:1;vector-effect:none;fill:#ffffff;fill-opacity:1;fill-rule:nonzero;stroke:#000000;stroke-width:0.1;stroke-linecap:butt;stroke-linejoin:round;stroke-miterlimit:4;stroke-dasharray:none;stroke-dashoffset:0;stroke-opacity:1;paint-order:normal" /><circle
     r="21.5"
     cy="152.196"
     cx="107.89574"
     id="circle4546"
     style="opacity:1;vector-effect:none;fill:none;fill-opacity:1;fill-rule:nonzero;stroke:#000000;stroke-width:0.1;stroke-linecap:butt;stroke-linejoin:round;stroke-miterlimit:4;stroke-dasharray:none;stroke-dashoffset:0;stroke-opacity:1;paint-order:normal" /><path
     sodipodi:nodetypes="cccccccscscscsccccccczc"
     inkscape:connector-curvature="0"
     id="path4548"
     d="m 80.813155,44.81122 c -12.550123,0.663808 -19.104233,1.777159 -21.173904,2.245858 -1.88817,0.427587 -3.635336,1.21554 -4.887556,2.391068 -1.189,1.116174 -1.931519,2.581725 -1.924946,4.419367 0,0 0.104158,42.228802 0.156577,56.867327 0.0184,5.13172 2.596547,8.67828 5.663737,11.92227 2.768621,2.92821 5.935739,5.60994 7.977809,8.98911 3.12836,5.17672 4.632693,9.69215 5.863725,17.71934 3.664688,23.89638 0,72.75008 0,72.75008 0,7.18571 5.136949,12.97078 11.518158,12.97078 h 23.943235 23.94324 c 6.38121,0 11.51816,-5.78507 11.51816,-12.97078 0,0 -3.66469,-48.8537 0,-72.75008 1.23103,-8.02719 2.73537,-12.54262 5.86373,-17.71934 2.04207,-3.37917 5.20918,-6.0609 7.97781,-8.98911 3.06719,-3.24399 5.64533,-6.79055 5.66373,-11.92227 0.0524,-14.638523 0.15658,-56.867327 0.15658,-56.867327 0.007,-1.837642 -0.73595,-3.303193 -1.92495,-4.419367 -1.25222,-1.175528 -2.99938,-1.963481 -4.88755,-2.391068 -2.06967,-0.468699 -8.62377,-1.58205 -21.1739,-2.245858 -6.27508,-0.331853 -16.66533,-0.497644 -27.13685,-0.497644 -10.471505,0 -20.861745,0.165791 -27.136835,0.497644 z"
     style="opacity:1;vector-effect:none;fill:none;fill-opacity:1;fill-rule:nonzero;stroke:#000000;stroke-width:0.1;stroke-linecap:butt;stroke-linejoin:round;stroke-miterlimit:4;stroke-dasharray:none;stroke-dashoffset:0;stroke-opacity:1;paint-order:normal" /><circle
     r="12"
     cy="205.42072"
     cx="107.89574"
     id="circle4556"
     style="opacity:1;vector-effect:none;fill:none;fill-opacity:1;fill-rule:nonzero;stroke:#000000;stroke-width:0.1;stroke-linecap:butt;stroke-linejoin:round;stroke-miterlimit:4;stroke-dasharray:none;stroke-dashoffset:0;stroke-opacity:1;paint-order:normal" /><path
     style="fill:none;stroke:#000000;stroke-width:0.26458332px;stroke-linecap:butt;stroke-linejoin:miter;stroke-opacity:1"
     d="m 65.862336,74.910104 10.533327,10.44947"
     id="path4598"
     inkscape:connector-curvature="0" /><path
     style="fill:none;stroke:#000000;stroke-width:0.26458332px;stroke-linecap:butt;stroke-linejoin:miter;stroke-opacity:1"
     d="m 65.862336,87.41591 10.533327,3.443666"
     id="path4600"
     inkscape:connector-curvature="0" /><path
     style="fill:none;stroke:#000000;stroke-width:0.26458332px;stroke-linecap:butt;stroke-linejoin:miter;stroke-opacity:1"
     d="M 65.862336,99.921724 76.395663,96.359575"
     id="path4606"
     inkscape:connector-curvature="0" /><path
     style="fill:none;stroke:#000000;stroke-width:0.26458332px;stroke-linecap:butt;stroke-linejoin:miter;stroke-opacity:1"
     d="M 65.862336,112.42753 76.395663,101.85957"
     id="path4608"
     inkscape:connector-curvature="0" /><path
     style="fill:none;stroke:#000000;stroke-width:0.26458332px;stroke-linecap:butt;stroke-linejoin:miter;stroke-opacity:1"
     d="m 149.92915,74.910104 -10.53322,10.44947"
     id="path4616"
     inkscape:connector-curvature="0" /><path
     style="fill:none;stroke:#000000;stroke-width:0.26458332px;stroke-linecap:butt;stroke-linejoin:miter;stroke-opacity:1"
     d="m 149.92915,87.41591 -10.53322,3.443666"
     id="path4618"
     inkscape:connector-curvature="0" /><path
     style="fill:none;stroke:#000000;stroke-width:0.26458332px;stroke-linecap:butt;stroke-linejoin:miter;stroke-opacity:1"
     d="M 149.92915,99.921724 139.39593,96.359575"
     id="path4620"
     inkscape:connector-curvature="0" /><path
     style="fill:none;stroke:#000000;stroke-width:0.26458332px;stroke-linecap:butt;stroke-linejoin:miter;stroke-opacity:1"
     d="M 149.92915,112.42753 139.39593,101.85957"
     id="path4622"
     inkscape:connector-curvature="0" /><g
     transform="matrix(-1,0,0,1,237.84076,9.649874)"
     id="g4672"
     style="fill:none;fill-opacity:1;stroke:#ffffff;stroke-width:0.5;stroke-miterlimit:4;stroke-dasharray:none;stroke-opacity:1"><path
       sodipodi:nodetypes="ccccccccccc"
       inkscape:connector-curvature="0"
       d="m 111.34533,103.20972 -12.90051,1.8e-4 V 64.209701 h 63.00029 V 103.2099 l -12.84987,-1.8e-4 c -0.44973,0 -0.85052,0.19749 -1.12499,0.5091 -0.27447,0.31161 -0.67527,0.50911 -1.125,0.50911 h -32.74993 c -0.44973,0 -0.85053,-0.1975 -1.125,-0.50911 -0.27447,-0.31161 -0.67526,-0.5091 -1.12499,-0.5091 z"
       style="opacity:1;vector-effect:none;fill:none;fill-opacity:1;fill-rule:nonzero;stroke:#ffffff;stroke-width:0.5;stroke-linecap:butt;stroke-linejoin:round;stroke-miterlimit:4;stroke-dasharray:none;stroke-dashoffset:0;stroke-opacity:1;paint-order:normal"
       id="path4670" /></g><g
     id="g4667"
     transform="matrix(-1,0,0,1,237.84076,9.649874)"
     style="stroke:#000000;stroke-opacity:1"><path
       id="path4665"
       style="opacity:1;vector-effect:none;fill:none;fill-opacity:1;fill-rule:nonzero;stroke:#000000;stroke-width:0.1;stroke-linecap:butt;stroke-linejoin:round;stroke-miterlimit:4;stroke-dasharray:none;stroke-dashoffset:0;stroke-opacity:1;paint-order:normal"
       d="m 111.34533,103.20972 -12.90051,1.8e-4 V 64.209701 h 63.00029 V 103.2099 l -12.84987,-1.8e-4 c -0.44973,0 -0.85052,0.19749 -1.12499,0.5091 -0.27447,0.31161 -0.67527,0.50911 -1.125,0.50911 h -32.74993 c -0.44973,0 -0.85053,-0.1975 -1.125,-0.50911 -0.27447,-0.31161 -0.67526,-0.5091 -1.12499,-0.5091 z"
       inkscape:connector-curvature="0"
       sodipodi:nodetypes="ccccccccccc" /></g><path
     inkscape:connector-curvature="0"
     style="opacity:1;vector-effect:none;fill:#000000;fill-opacity:1;fill-rule:nonzero;stroke:none;stroke-width:0.1;stroke-linecap:butt;stroke-linejoin:round;stroke-miterlimit:4;stroke-dasharray:none;stroke-dashoffset:0;stroke-opacity:1;paint-order:normal"
     d="m 101.89434,116.49384 0.0737,0.46734 c -0.91964,0.145 -1.83341,0.32673 -2.738548,0.54426 l -0.110581,-0.46008 c 0.917269,-0.22042 1.843329,-0.40457 2.775429,-0.55152 z"
     id="path4845" /><path
     inkscape:connector-curvature="0"
     style="opacity:1;vector-effect:none;fill:#000000;fill-opacity:1;fill-rule:nonzero;stroke:none;stroke-width:0.1;stroke-linecap:butt;stroke-linejoin:round;stroke-miterlimit:4;stroke-dasharray:none;stroke-dashoffset:0;stroke-opacity:1;paint-order:normal"
     d="m 107.32319,117.84 v 1.58222 c -7.16831,-0.005 -14.363128,2.50996 -19.954919,6.99037 1.493253,-2.65207 3.482492,-5.19221 5.906286,-7.47421 l 0.722616,1.67581 c 4.195918,-1.80913 8.758837,-2.77496 13.326017,-2.77419 z"
     id="rect4752" /><path
     style="opacity:1;vector-effect:none;fill:#000000;fill-opacity:1;fill-rule:nonzero;stroke:none;stroke-width:0.1;stroke-linecap:butt;stroke-linejoin:round;stroke-miterlimit:4;stroke-dasharray:none;stroke-dashoffset:0;stroke-opacity:1;paint-order:normal"
     d="m 115.19452,115.74854 -0.17932,0.94154 c -0.37164,-0.0708 -0.74452,-0.13744 -1.11828,-0.19637 l -0.0734,0.46768 c 0.36878,0.0581 0.73607,0.12388 1.10278,0.19378 l -0.1788,0.93793 c 0.17631,0.0336 0.35185,0.069 0.52761,0.10542 l 0.19379,-0.93586 c 0.36548,0.0756 0.73006,0.15566 1.09296,0.24288 l 0.11058,-0.45992 c -0.36776,-0.0884 -0.73701,-0.16933 -1.10742,-0.24598 l 0.1943,-0.93896 c -0.18802,-0.0389 -0.37619,-0.0762 -0.56482,-0.11214 z"
     id="path4854"
     inkscape:connector-curvature="0" /><path
     inkscape:connector-curvature="0"
     id="path4858"
     d="m 108.46828,117.84 v 1.58222 c 7.16831,-0.005 14.36313,2.50996 19.95492,6.99037 -1.49325,-2.65207 -3.48249,-5.19221 -5.90628,-7.47421 l -0.72262,1.67581 c -4.19592,-1.80913 -8.75884,-2.77496 -13.32602,-2.77419 z"
     style="opacity:1;vector-effect:none;fill:#000000;fill-opacity:1;fill-rule:nonzero;stroke:none;stroke-width:0.1;stroke-linecap:butt;stroke-linejoin:round;stroke-miterlimit:4;stroke-dasharray:none;stroke-dashoffset:0;stroke-opacity:1;paint-order:normal" /><path
     style="color:#000000;font-style:normal;font-variant:normal;font-weight:normal;font-stretch:normal;font-size:medium;line-height:normal;font-family:sans-serif;font-variant-ligatures:normal;font-variant-position:normal;font-variant-caps:normal;font-variant-numeric:normal;font-variant-alternates:normal;font-feature-settings:normal;text-indent:0;text-align:start;text-decoration:none;text-decoration-line:none;text-decoration-style:solid;text-decoration-color:#000000;letter-spacing:normal;word-spacing:normal;text-transform:none;writing-mode:lr-tb;direction:ltr;text-orientation:mixed;dominant-baseline:auto;baseline-shift:baseline;text-anchor:start;white-space:normal;shape-padding:0;clip-rule:nonzero;display:inline;overflow:visible;visibility:visible;opacity:1;isolation:auto;mix-blend-mode:normal;color-interpolation:sRGB;color-interpolation-filters:linearRGB;solid-color:#000000;solid-opacity:1;vector-effect:none;fill:none;fill-opacity:1;fill-rule:nonzero;stroke:#ec0000;stroke-width:0.1;stroke-linecap:butt;stroke-linejoin:round;stroke-miterlimit:4;stroke-dasharray:none;stroke-dashoffset:0;stroke-opacity:1;paint-order:normal;color-rendering:auto;image-rendering:auto;shape-rendering:auto;text-rendering:auto;enable-background:accumulate"
     d="m 80.807445,44.711484 c -12.55419,0.664009 -19.1102,1.776706 -21.19096,2.247926 -1.85306,0.419696 -3.57449,1.184143 -4.8364,2.326474 -1.2618,1.142219 -2.06084,2.667879 -2.05414,4.581991 0,0 0.10416,42.228737 0.15658,56.867485 0.0176,4.91365 2.37167,8.38938 5.24618,11.51351 2.87454,3.12413 6.26983,5.90782 8.40984,9.44903 3.12237,5.16683 4.62076,9.66197 5.85081,17.68264 3.66006,23.86633 -10e-4,72.73148 -10e-4,72.73148 -2.6e-4,7.2368 5.17692,13.07434 11.61841,13.07465 H 107.95 131.89324 c 6.44149,-2.6e-4 11.61867,-5.83785 11.6184,-13.07465 3e-5,0 -3.66109,-48.86515 -0.001,-72.73148 1.23008,-8.02067 2.72844,-12.51581 5.85081,-17.68264 2.14003,-3.54121 5.5353,-6.3249 8.40984,-9.44903 2.87451,-3.12413 5.22859,-6.59986 5.24618,-11.51351 0.0524,-14.638748 0.15658,-56.867846 0.15658,-56.867846 0.007,-1.914112 -0.79234,-3.439411 -2.05414,-4.58163 -1.26187,-1.142331 -2.9833,-1.906778 -4.83636,-2.326474 -2.0807,-0.47122 -8.63671,-1.583917 -21.1909,-2.247926 -6.27911,-0.332153 -16.6698,-0.49816 -27.14255,-0.49816 -10.472755,0 -20.863415,0.166007 -27.142555,0.49816 z"
     id="path4712"
     inkscape:connector-curvature="0"
     sodipodi:nodetypes="ccccscccccccccccscccczc" /></svg>